<svg xmlns="http://www.w3.org/2000/svg" xmlns:xlink="http://www.w3.org/1999/xlink" version="1.1" x="0px" y="0px" viewBox="0 0 68 85" enable-background="new 0 0 68 68" xml:space="preserve"><g><g><path d="M60.17578,34.5c0.24219,1.51904,1.55054,2.68701,3.13696,2.68701C65.07031,37.18701,66.5,35.75732,66.5,34    c0-1.75781-1.42969-3.1875-3.18726-3.1875c-1.58643,0-2.89502,1.16803-3.13696,2.6875h-7.48584    c-0.08081-3.03967-0.87183-5.90546-2.24072-8.41992l6.46411-3.73199c0.97313,1.197,2.6824,1.55327,4.06592,0.75592    c1.52197-0.87891,2.04517-2.83203,1.16675-4.354c-0.86549-1.4988-2.80953-2.05926-4.35425-1.16699    c-1.37354,0.79327-1.92285,2.45911-1.37305,3.89569l-6.48926,3.74658c-1.54224-2.50372-3.65137-4.61279-6.15503-6.15491    l3.75415-6.50275c1.63779,0.62537,3.18298-0.1384,3.88818-1.35962c0.88053-1.52564,0.359-3.47392-1.16675-4.354    c-1.54577-0.89287-3.48944-0.33133-4.354,1.1665c-0.76627,1.32768-0.4978,3.04706,0.75806,4.06177l-3.73438,6.46826    C40.40527,16.1817,37.53955,15.39087,34.5,15.31V7.82397c1.51929-0.242,2.68726-1.55042,2.68726-3.13696    C37.18726,2.92969,35.75757,1.5,34,1.5s-3.18726,1.42969-3.18726,3.18701c0,1.58655,1.16797,2.89496,2.68726,3.13696V15.31    c-3.03931,0.08087-5.90503,0.87158-8.41919,2.24036l-3.73486-6.46814c1.25277-1.01207,1.52654-2.73021,0.75806-4.06171    c-0.86502-1.49863-2.80967-2.05854-4.354-1.1665c-1.52277,0.87837-2.0491,2.8252-1.16675,4.354    c0.71277,1.23485,2.26326,1.98035,3.88818,1.35962l3.75439,6.50256c-2.50391,1.54211-4.61328,3.65143-6.15527,6.15533    l-6.48828-3.74603c0.57844-1.50102-0.04115-3.12663-1.37427-3.89648C8.66185,15.68992,6.71894,16.25217,5.854,17.75    c-0.87866,1.52197-0.35522,3.4751,1.16675,4.354c1.35719,0.78218,3.07277,0.46574,4.06567-0.75598l6.46411,3.73224    c-1.36865,2.51434-2.15967,5.38019-2.24048,8.41974H7.82422c-0.24194-1.51947-1.55054-2.6875-3.13696-2.6875    C2.92969,30.8125,1.5,32.24219,1.5,34c0,1.75732,1.42969,3.18701,3.18726,3.18701c1.58643,0,2.89478-1.16797,3.13696-2.68701    h7.48584c0.08081,3.03949,0.87158,5.90509,2.24048,8.41943l-6.46387,3.73199c-0.99403-1.22261-2.70964-1.53757-4.06592-0.75592    c-1.52173,0.87891-2.04517,2.83203-1.1665,4.35449c0.86487,1.49837,2.8092,2.05867,4.35376,1.1665    c1.33051-0.76834,1.95349-2.39262,1.37451-3.89655l6.48779-3.74573c1.54224,2.50385,3.65137,4.6131,6.15503,6.15527    l-3.75391,6.50238c-1.63752-0.62554-3.18328,0.1384-3.88818,1.35962c-0.88227,1.52866-0.35618,3.47554,1.16675,4.354    c1.54547,0.8927,3.48949,0.33146,4.35376-1.1665c0.76833-1.33048,0.49548-3.04851-0.75781-4.06158l3.73438-6.46808    c2.51416,1.3689,5.38013,2.15979,8.41968,2.24066v7.48553c-1.51929,0.242-2.68726,1.55042-2.68726,3.13696    c0,1.75781,1.42969,3.1875,3.18726,3.1875s3.18726-1.42969,3.18726-3.1875c0-1.58655-1.16797-2.89496-2.68726-3.13696V52.69    c3.03955-0.08087,5.90527-0.87177,8.41968-2.2406l3.73438,6.46796c-1.25572,1.01504-1.52443,2.73379-0.75806,4.06165    c0.86502,1.49863,2.80967,2.05854,4.354,1.1665c1.52547-0.87992,2.0476-2.82825,1.1665-4.354    c-0.71277-1.23485-2.26164-1.9806-3.88794-1.35962l-3.75415-6.50232c2.50366-1.54199,4.61255-3.65094,6.15479-6.15442    l6.50122,3.75238c-0.05005,0.12646-0.10059,0.25269-0.13672,0.38702c-0.37744,1.40869,0.19653,2.75049,1.49805,3.50195    c1.54594,0.89297,3.48944,0.33112,4.35425-1.1665c0.87842-1.52246,0.35498-3.47559-1.16675-4.35449    c-1.47991-0.85455-3.07144-0.48685-4.05151,0.76434l-6.47876-3.73944c1.36914-2.51453,2.16016-5.38055,2.24097-8.42041H60.17578z     M63.31274,31.8125C64.5188,31.8125,65.5,32.79395,65.5,34s-0.9812,2.18701-2.18726,2.18701    c-1.2063,0-2.1875-0.98096-2.1875-2.18701S62.10645,31.8125,63.31274,31.8125z M58.29175,17.44922    c1.06583-0.61508,2.39698-0.22356,2.98804,0.80078c0.60303,1.04443,0.2439,2.38477-0.80054,2.98779    c-1.01294,0.58496-2.40771,0.20361-2.98804-0.80078C56.88818,19.39258,57.24731,18.05225,58.29175,17.44922z M46.76221,7.52051    c0.59418-1.02967,1.93001-1.41228,2.98779-0.80028c1.04663,0.60384,1.40524,1.9406,0.80078,2.98778    c-0.58032,1.00439-1.97461,1.38672-2.98804,0.80029C46.51796,9.90552,46.15625,8.57042,46.76221,7.52051z M20.43726,10.5083    c-1.01294,0.58545-2.4082,0.20459-2.98779-0.80029C16.84404,8.65902,17.20418,7.32359,18.25,6.72022    c1.05736-0.61176,2.39333-0.22988,2.98779,0.80028C21.84321,8.5695,21.48307,9.90493,20.43726,10.5083z M7.52075,21.23779    C6.47632,20.63477,6.11719,19.29443,6.72021,18.25c0.59678-1.03427,1.93348-1.41076,2.98779-0.80078    C12.20489,18.88978,9.78071,22.54195,7.52075,21.23779z M4.68726,36.18701C3.4812,36.18701,2.5,35.20605,2.5,34    s0.9812-2.1875,2.18726-2.1875c1.2063,0,2.1875,0.98145,2.1875,2.1875S5.89355,36.18701,4.68726,36.18701z M9.70801,50.55029    c-1.01343,0.58545-2.40796,0.2041-2.98779-0.80029c-0.60303-1.04492-0.2439-2.38525,0.80054-2.98828    c1.05393-0.60822,2.3891-0.2357,2.98755,0.80023l0.00024,0.00055l0.00049,0.00043    C11.11267,48.60956,10.75532,49.94606,9.70801,50.55029z M21.23779,60.479c-0.57959,1.00488-1.97437,1.3877-2.98779,0.80029    c-1.04478-0.60278-1.40649-1.93788-0.80054-2.98779c0.59418-1.02967,1.93001-1.41228,2.98779-0.80029    C21.48396,58.0951,21.84271,59.43189,21.23779,60.479z M47.56274,57.49121c1.05804-0.61214,2.39342-0.22906,2.98779,0.80029    c0.6045,1.04638,0.24677,2.38356-0.80054,2.98779c-1.01294,0.58691-2.40796,0.20459-2.98804-0.80029    C46.1578,59.43233,46.51543,58.09545,47.56274,57.49121z M57.25952,48.17334c0.35134-1.31003,1.73715-2.26805,3.21973-1.41162    c1.04443,0.60303,1.40356,1.94385,0.80054,2.98828c-0.57983,1.00439-1.97461,1.38672-2.98804,0.80029    C57.38672,50.02783,57.00073,49.13916,57.25952,48.17334z M31.81274,4.68701C31.81274,3.48096,32.79395,2.5,34,2.5    s2.18726,0.98096,2.18726,2.18701S35.20605,6.87451,34,6.87451S31.81274,5.89307,31.81274,4.68701z M36.18726,63.3125    c0,1.20605-0.9812,2.1875-2.18726,2.1875s-2.18726-0.98145-2.18726-2.1875S32.79395,61.125,34,61.125    S36.18726,62.10645,36.18726,63.3125z M34,50.71533c-9.2168,0-16.71533-7.49854-16.71533-16.71533S24.7832,17.28467,34,17.28467    S50.71533,24.7832,50.71533,34S43.2168,50.71533,34,50.71533z"/></g><g><path d="M34,19.62109c-7.92847,0-14.37866,6.4502-14.37866,14.37891c0,7.92822,6.4502,14.37842,14.37866,14.37842    S48.37866,41.92822,48.37866,34C48.37866,26.07129,41.92847,19.62109,34,19.62109z M34,47.07861    c-7.21167,0-13.07886-5.86719-13.07886-13.07861c0-7.21191,5.86719-13.0791,13.07886-13.0791S47.07886,26.78809,47.07886,34    C47.07886,41.21143,41.21167,47.07861,34,47.07861z"/></g><g><path d="M42.00464,29.51758c0-0.27637-0.22388-0.5-0.5-0.5s-0.5,0.22363-0.5,0.5c0,1.34753-0.97559,2.48669-2.26733,2.73712    c-0.53491-1.09167-1.37109-1.97137-2.38379-2.51434c0.06128-0.21423,0.10107-0.43555,0.10107-0.66272    c0-0.86049-0.45564-1.63641-1.18335-2.08051c0.30493-0.36255,0.80151-0.53827,1.28296-0.40631    c0.26831,0.07373,0.5415-0.08643,0.61304-0.35254c0.07202-0.2666-0.08569-0.54102-0.35229-0.61328    c-0.98584-0.26385-2.0127,0.1748-2.51904,1.01953c-0.19824-0.02441-0.39673-0.02386-0.59204,0.00018    c-0.50635-0.84619-1.53345-1.28613-2.51953-1.01971c-0.2666,0.07227-0.42432,0.34668-0.35229,0.61328    c0.07178,0.2666,0.34497,0.42627,0.61304,0.35254c0.48096-0.12891,0.97754,0.04535,1.28271,0.40649    c-0.91556,0.55785-1.40163,1.62255-1.08228,2.74316c-1.01294,0.54321-1.84937,1.42303-2.38379,2.51422    c-1.29175-0.25043-2.26709-1.38965-2.26709-2.73712c0-0.27637-0.22388-0.5-0.5-0.5s-0.5,0.22363-0.5,0.5    c0,1.75684,1.22021,3.26093,2.87183,3.67841c-0.13232,0.43646-0.2124,0.88538-0.2478,1.34161h-1.48413    c-0.27612,0-0.5,0.22363-0.5,0.5s0.22388,0.5,0.5,0.5h1.48389c0.0354,0.46106,0.11548,0.91364,0.24805,1.35181    c-1.65161,0.41748-2.87183,1.92163-2.87183,3.67847c0,0.27637,0.22388,0.5,0.5,0.5s0.5-0.22363,0.5-0.5    c0-1.34351,0.96948-2.4801,2.25562-2.73511c0.92749,1.91162,2.74658,3.13501,4.75439,3.13501    c2.00293,0,3.81885-1.22443,4.74463-3.13501c1.28564,0.25513,2.25537,1.39166,2.25537,2.73511c0,0.27637,0.22388,0.5,0.5,0.5    s0.5-0.22363,0.5-0.5c0-1.7569-1.22021-3.26105-2.87183-3.67847c0.13257-0.43866,0.2124-0.89099,0.2478-1.35181h1.4939    c0.27612,0,0.5-0.22363,0.5-0.5s-0.22388-0.5-0.5-0.5h-1.49414c-0.0354-0.45654-0.11548-0.90546-0.24731-1.34161    C40.78442,32.7785,42.00464,31.27441,42.00464,29.51758z M32.55273,28.94287c0.15478-1.7249,2.73595-1.76779,2.8938-0.00049    c0.00122,0.01318,0.00586,0.12256,0.00806,0.13525c0,0.22949-0.05688,0.46143-0.16577,0.66357    c-0.24658,0.48535-0.73853,0.78662-1.28418,0.78662c-0.84489,0-1.45996-0.693-1.45996-1.4502L32.55273,28.94287z     M34.00464,39.96777c-2.47366,0-4.40924-2.2561-4.41016-4.92938c0-0.00031,0.00024-0.00049,0.00024-0.00049l-0.00024-0.0011    c0.00065-1.86833,0.97275-3.60454,2.48975-4.42889c0.39764,0.50353,1.15295,0.91992,1.92041,0.91992    c0.75728,0,1.51051-0.41638,1.91064-0.91992c1.50344,0.81699,2.48926,2.54479,2.48926,4.42969    C38.40454,37.71623,36.46457,39.96777,34.00464,39.96777z"/></g><g><path d="M35.61426,33.42822c-0.19531-0.19531-0.51172-0.19531-0.70703,0l-0.90747,0.90729l-0.90723-0.90729    c-0.19531-0.19531-0.51172-0.19531-0.70703,0s-0.19531,0.51172,0,0.70703l0.90723,0.90723l-0.90723,0.90723    c-0.19531,0.19531-0.19531,0.51172,0,0.70703c0.19531,0.19531,0.51171,0.19532,0.70703,0l0.90723-0.90729l0.90747,0.90729    c0.19531,0.19531,0.51171,0.19532,0.70703,0c0.19531-0.19531,0.19531-0.51172,0-0.70703l-0.90723-0.90723l0.90723-0.90723    C35.80957,33.93994,35.80957,33.62354,35.61426,33.42822z"/></g></g><text x="0" y="83" fill="#000000" font-size="5px" font-weight="bold" font-family="'Helvetica Neue', Helvetica, Arial-Unicode, Arial, Sans-serif">Created by Vectors Point</text><text x="0" y="88" fill="#000000" font-size="5px" font-weight="bold" font-family="'Helvetica Neue', Helvetica, Arial-Unicode, Arial, Sans-serif">from the Noun Project</text></svg>